<?xml version="1.0" encoding="iso-8859-1"?>
<!-- Generator: Adobe Illustrator 19.0.0, SVG Export Plug-In . SVG Version: 6.00 Build 0)  -->
<svg version="1.1" id="Layer_1" xmlns="http://www.w3.org/2000/svg" xmlns:xlink="http://www.w3.org/1999/xlink" x="0px" y="0px"
	 viewBox="0 0 512 512" style="enable-background:new 0 0 512 512;" xml:space="preserve">
<path style="fill:#FFC843;" d="M512,291.106c0-6.681-5.466-12.147-12.147-12.147h-85.038c-6.681,0-12.147,5.466-12.147,12.147
	v111.738c0,6.681,5.466,12.147,12.147,12.147h85.037c6.681,0,12.147-5.466,12.147-12.147V291.106H512z"/>
<path style="opacity:0.2;enable-background:new    ;" d="M414.814,278.959c-6.681,0-12.147,5.466-12.147,12.147v111.738
	c0,6.681,5.466,12.147,12.147,12.147h56.145V278.959H414.814z"/>
<path style="fill:#0055B8;" d="M512,97.961c0-6.681-5.466-12.147-12.147-12.147h-85.038c-6.681,0-12.147,5.466-12.147,12.147
	v111.736c0,6.681,5.466,12.15,12.147,12.15h85.037c6.681,0,12.147-5.469,12.147-12.15V97.961H512z"/>
<path style="opacity:0.2;enable-background:new    ;" d="M414.814,85.813c-6.681,0-12.147,5.466-12.147,12.147v111.736
	c0,6.681,5.466,12.15,12.147,12.15h56.145V85.813H414.814z"/>
<path style="fill:#0082CA;" d="M448.829,64.214c0-20.043-16.399-36.443-36.444-36.443H83.819c-20.044,0-36.444,16.4-36.444,36.443
	v383.575c0,20.043,16.4,36.441,36.444,36.441h328.566c20.045,0,36.444-16.398,36.444-36.441L448.829,64.214L448.829,64.214z"/>
<path style="fill:#FFFFFF;" d="M373.524,137.951c0-12.312-10.073-22.385-22.384-22.385H170.57
	c-12.311,0-22.384,10.073-22.384,22.385v41.845c0,12.31,10.073,22.383,22.384,22.383h180.57c12.311,0,22.384-10.073,22.384-22.383
	V137.951z"/>
<g>
	<path style="fill:#333E48;" d="M334.322,264.294H187.387c-4.582,0-8.297-3.714-8.297-8.297s3.715-8.297,8.297-8.297h146.935
		c4.582,0,8.297,3.714,8.297,8.297S338.904,264.294,334.322,264.294z"/>
	<path style="fill:#333E48;" d="M67.601,62.796c14.995,0,27.148,12.156,27.148,27.15s-12.154,27.148-27.148,27.148H27.148
		C12.155,117.094,0,104.94,0,89.946s12.155-27.15,27.148-27.15H67.601z"/>
	<path style="fill:#333E48;" d="M67.601,173.5c14.995,0,27.148,12.156,27.148,27.15c0,14.992-12.154,27.146-27.148,27.146H27.148
		C12.155,227.796,0,215.641,0,200.65c0-14.994,12.155-27.15,27.148-27.15H67.601z"/>
	<path style="fill:#333E48;" d="M67.601,284.203c14.995,0,27.148,12.154,27.148,27.148s-12.154,27.148-27.148,27.148H27.148
		C12.155,338.499,0,326.345,0,311.351s12.155-27.148,27.148-27.148L67.601,284.203L67.601,284.203z"/>
	<path style="fill:#333E48;" d="M67.601,394.904c14.995,0,27.148,12.156,27.148,27.15c0,14.992-12.154,27.148-27.148,27.148H27.148
		C12.155,449.203,0,437.045,0,422.055c0-14.994,12.155-27.15,27.148-27.15H67.601z"/>
</g>
<path style="opacity:0.2;enable-background:new    ;" d="M94.748,89.946c0,14.994-12.154,27.148-27.148,27.148H27.148
	C12.155,117.094,0,104.94,0,89.946H94.748z"/>
<path style="opacity:0.2;enable-background:new    ;" d="M94.748,200.65c0,14.992-12.154,27.146-27.148,27.146H27.148
	C12.155,227.796,0,215.641,0,200.65H94.748z"/>
<path style="opacity:0.2;enable-background:new    ;" d="M94.748,311.351c0,14.994-12.154,27.148-27.148,27.148H27.148
	C12.155,338.499,0,326.345,0,311.351H94.748z"/>
<path style="opacity:0.2;enable-background:new    ;" d="M94.748,422.055c0,14.992-12.154,27.148-27.148,27.148H27.148
	C12.155,449.203,0,437.045,0,422.055H94.748z"/>
<g>
</g>
<g>
</g>
<g>
</g>
<g>
</g>
<g>
</g>
<g>
</g>
<g>
</g>
<g>
</g>
<g>
</g>
<g>
</g>
<g>
</g>
<g>
</g>
<g>
</g>
<g>
</g>
<g>
</g>
</svg>
